<svg width="32" height="32" viewBox="0 0 32 32" fill="none" xmlns="http://www.w3.org/2000/svg">
<circle opacity="0.75" cx="16" cy="16" r="16" fill="#F76C6F"/>
<path d="M17.7615 13.733C17.7615 12.601 16.8465 11.683 15.718 11.683C14.5895 11.683 13.6745 12.601 13.6745 13.733C13.6745 14.8655 14.5895 15.783 15.718 15.783C16.8465 15.783 17.7615 14.8655 17.7615 13.733ZM18.7615 13.733C18.7615 15.417 17.399 16.783 15.718 16.783C14.037 16.783 12.6745 15.417 12.6745 13.733C12.6745 12.049 14.037 10.683 15.718 10.683C17.399 10.683 18.7615 12.049 18.7615 13.733ZM16.359 22.7615C17.1052 22.1052 17.8023 21.3949 18.4445 20.6365C20.3185 18.416 21.4355 16.0745 21.4355 13.7335C21.4355 10.6195 18.7795 8.0005 15.718 8.0005C12.6565 8.0005 10.0005 10.619 10.0005 13.733C10.0005 16.074 11.1175 18.4155 12.9915 20.6355C13.8147 21.6074 14.7276 22.4997 15.718 23.3005C15.913 23.145 16.128 22.9645 16.359 22.761V22.7615ZM22.4355 13.7335C22.4355 16.351 21.2205 18.897 19.209 21.281C18.3308 22.318 17.3554 23.2685 16.296 24.1195C16.163 24.225 16.0665 24.2985 16.0125 24.3375L15.718 24.5525L15.423 24.3375C15.3273 24.2666 15.233 24.1939 15.14 24.1195C14.0808 23.2686 13.1056 22.3183 12.2275 21.2815C10.2145 18.8965 9 16.3505 9 13.7325C9.0005 10.064 12.108 7 15.718 7C19.328 7 22.4355 10.064 22.4355 13.733V13.7335Z" fill="white"/>
</svg>